<svg width="300" height="87" viewBox="0 0 300 87" fill="none" xmlns="http://www.w3.org/2000/svg">
<g id="Frame 1000001443">
<g id="creative logo">
<path id="I CREATIVE GIFTS" d="M31.0728 53H25.2973V31.7098H31.0728V53ZM58.632 37.4368C56.7662 36.5632 55.143 36.1264 53.7625 36.1264C52.382 36.1264 51.3088 36.6872 50.5431 37.8089C49.7773 38.9306 49.3944 40.4783 49.3944 42.452C49.3944 46.5396 50.9529 48.5834 54.0699 48.5834C55.4935 48.5834 57.2947 48.1412 59.4733 47.2568V52.1102C57.7045 52.8975 55.6931 53.2912 53.4389 53.2912C50.2249 53.2912 47.7605 52.3583 46.0456 50.4924C44.3415 48.6266 43.4895 45.9356 43.4895 42.4196C43.4679 40.2302 43.8724 38.2996 44.7028 36.6279C45.5441 34.9454 46.752 33.6512 48.3267 32.7452C49.9013 31.8284 51.7295 31.3809 53.811 31.4024C56.1191 31.4024 58.3139 31.9039 60.3954 32.907L58.632 37.4368ZM69.3691 45.2508V53H63.6098V31.7098H70.5825C76.3742 31.7098 79.27 33.8075 79.27 38.003C79.27 40.4729 78.0621 42.3819 75.6462 43.73L81.8585 53H75.3388L70.8251 45.2508H69.3691ZM69.3691 36.0617V40.9312H70.4369C72.4537 40.9312 73.4621 40.0415 73.4621 38.2619C73.4621 36.7951 72.4753 36.0617 70.5016 36.0617H69.3691ZM96.4323 48.3084V53H83.7973V31.7098H96.4323V36.3367H89.5566V39.6855H95.9307V44.2963H89.5566V48.3084H96.4323ZM119.521 53H113.228L112.192 49.004H105.268L104.201 53H97.875L104.815 31.6289H112.5L119.521 53ZM106.465 44.2963H110.995C109.658 39.2487 108.892 36.1965 108.698 35.1395C108.482 36.4769 107.738 39.5292 106.465 44.2963ZM129.134 36.4176V53H123.375V36.4176H118.182V31.7098H134.311V36.4176H129.134ZM143.135 53H137.36V31.7098H143.135V53ZM155.791 47.5157C155.899 46.2754 156.212 44.6252 156.73 42.5652L159.69 31.7098H166.129L159.156 53H152.378L145.438 31.7098H151.909L154.805 42.5005C155.398 44.8625 155.727 46.5342 155.791 47.5157ZM181.057 48.3084V53H168.422V31.7098H181.057V36.3367H174.182V39.6855H180.556V44.2963H174.182V48.3084H181.057ZM201.933 44.9757V40.543H211.122V52.0131C208.641 52.8652 205.902 53.2912 202.904 53.2912C199.636 53.2912 197.101 52.3421 195.3 50.4439C193.51 48.5457 192.614 45.8547 192.614 42.3711C192.614 38.8874 193.591 36.1911 195.543 34.2821C197.495 32.3623 200.245 31.4024 203.793 31.4024C206.36 31.4024 208.658 31.85 210.685 32.7452L208.873 37.2588C207.353 36.5039 205.708 36.1264 203.939 36.1264C202.181 36.1264 200.844 36.671 199.927 37.7604C199.01 38.8497 198.552 40.4028 198.552 42.4196C198.552 44.4257 198.967 45.9518 199.797 46.998C200.628 48.0442 201.825 48.5672 203.389 48.5672C204.263 48.5672 205.045 48.481 205.735 48.3084V44.9757H201.933ZM221.229 53H215.454V31.7098H221.229V53ZM231.491 45.0081V53H225.829V31.7098H238.415V36.3367H231.491V40.3974H237.865V45.0081H231.491ZM251.322 36.4176V53H245.562V36.4176H240.369V31.7098H256.499V36.4176H251.322ZM258.56 46.82C259.704 47.4132 260.858 47.8608 262.022 48.1628C263.187 48.4648 264.217 48.6158 265.112 48.6158C266.018 48.6158 266.676 48.4756 267.086 48.1951C267.507 47.9039 267.717 47.5157 267.717 47.0303C267.717 46.7391 267.636 46.4857 267.474 46.27C267.302 46.0543 267.054 45.8439 266.73 45.639C266.418 45.4233 265.506 44.9703 263.996 44.2801C262.486 43.5898 261.402 42.9643 260.744 42.4034C259.385 41.2386 258.706 39.664 258.706 37.6795C258.706 35.695 259.418 34.1527 260.842 33.0526C262.276 31.9525 264.239 31.4024 266.73 31.4024C268.92 31.4024 271.168 31.9147 273.476 32.9393L271.713 37.3721C269.729 36.4661 268.008 36.0131 266.552 36.0131C265.84 36.0131 265.307 36.1372 264.951 36.3852C264.595 36.6333 264.417 36.9676 264.417 37.3883C264.417 37.7981 264.633 38.1702 265.064 38.5045C265.506 38.8389 266.66 39.4321 268.526 40.2841C270.392 41.1254 271.681 42.0206 272.393 42.9697C273.115 43.8972 273.476 45.0836 273.476 46.5288C273.498 48.5349 272.738 50.1689 271.195 51.4307C269.664 52.6926 267.642 53.3128 265.129 53.2912C263.694 53.2912 262.486 53.1887 261.505 52.9838C260.534 52.7681 259.553 52.423 258.56 51.9484V46.82Z" fill="url(#paint0_linear_164_407)"/>
<path id="Impress your loved one" d="M101.145 75.7427C101.043 75.772 100.962 75.7537 100.903 75.6877C100.837 75.6217 100.804 75.5483 100.804 75.4677C100.804 75.3357 100.867 75.255 100.991 75.2257C101.197 75.167 101.38 75.1047 101.541 75.0387C101.703 74.9727 101.893 74.914 102.113 74.8627C102.172 74.694 102.234 74.5583 102.3 74.4557C102.374 74.331 102.451 74.2063 102.531 74.0817C102.619 73.957 102.7 73.814 102.773 73.6527C103.008 73.154 103.202 72.681 103.356 72.2337C103.51 71.779 103.65 71.35 103.774 70.9467C103.899 70.5433 104.038 70.1693 104.192 69.8247C103.936 69.8393 103.705 69.865 103.499 69.9017C103.294 69.931 103.067 69.9933 102.817 70.0887C102.773 70.1033 102.737 70.1107 102.707 70.1107C102.634 70.1107 102.572 70.0813 102.52 70.0227C102.476 69.964 102.454 69.898 102.454 69.8247C102.454 69.7733 102.465 69.7257 102.487 69.6817C102.517 69.6377 102.561 69.6047 102.619 69.5827C102.957 69.4507 103.268 69.37 103.554 69.3407C103.84 69.304 104.156 69.2783 104.5 69.2637C104.552 69.2637 104.599 69.2637 104.643 69.2637C104.687 69.2563 104.731 69.2527 104.775 69.2527C105.032 69.2527 105.263 69.2673 105.468 69.2967C105.681 69.3187 105.916 69.3297 106.172 69.3297C106.253 69.3297 106.308 69.348 106.337 69.3847C106.374 69.414 106.392 69.447 106.392 69.4837C106.392 69.535 106.367 69.59 106.315 69.6487C106.264 69.7 106.187 69.7257 106.084 69.7257C105.791 69.7183 105.553 69.7257 105.369 69.7477C105.186 69.7623 104.977 69.777 104.742 69.7917C104.566 70.173 104.39 70.5873 104.214 71.0347C104.046 71.482 103.877 71.933 103.708 72.3877C103.54 72.8423 103.378 73.2787 103.224 73.6967C103.07 74.1073 102.92 74.474 102.773 74.7967C103.001 74.7967 103.213 74.815 103.411 74.8517C103.617 74.8883 103.826 74.9213 104.038 74.9507C104.119 74.958 104.178 74.9837 104.214 75.0277C104.251 75.0717 104.269 75.1193 104.269 75.1707C104.269 75.2293 104.244 75.2807 104.192 75.3247C104.141 75.3687 104.068 75.387 103.972 75.3797C103.811 75.3577 103.661 75.3393 103.521 75.3247C103.389 75.31 103.25 75.3027 103.103 75.3027C103.015 75.3027 102.92 75.3063 102.817 75.3137C102.722 75.321 102.623 75.332 102.52 75.3467C102.462 75.4273 102.381 75.4677 102.278 75.4677C102.212 75.4677 102.161 75.453 102.124 75.4237C101.97 75.4677 101.82 75.5153 101.673 75.5667C101.534 75.6253 101.358 75.684 101.145 75.7427ZM111.198 75.7097C111.015 75.7097 110.887 75.64 110.813 75.5007C110.747 75.3613 110.714 75.1927 110.714 74.9947C110.714 74.738 110.755 74.4703 110.835 74.1917C110.916 73.9057 110.997 73.671 111.077 73.4877C111.261 73.077 111.352 72.8057 111.352 72.6737C111.352 72.571 111.305 72.5197 111.209 72.5197C111.187 72.5197 111.162 72.5197 111.132 72.5197C111.11 72.5197 111.085 72.527 111.055 72.5417C110.85 72.6003 110.612 72.7177 110.34 72.8937C110.076 73.0697 109.812 73.2677 109.548 73.4877C109.284 73.7077 109.057 73.924 108.866 74.1367C108.764 74.254 108.668 74.3897 108.58 74.5437C108.492 74.6977 108.423 74.804 108.371 74.8627C108.291 74.958 108.195 75.0057 108.085 75.0057C108.012 75.0057 107.946 74.98 107.887 74.9287C107.836 74.87 107.821 74.782 107.843 74.6647C107.902 74.32 107.942 74.1037 107.964 74.0157C107.986 73.9203 108.001 73.8727 108.008 73.8727V73.7627C108.008 73.5867 107.997 73.4217 107.975 73.2677C107.961 73.1063 107.924 72.9817 107.865 72.8937C107.814 72.8057 107.733 72.78 107.623 72.8167C107.425 72.8753 107.198 72.9927 106.941 73.1687C106.685 73.3447 106.432 73.5427 106.182 73.7627C105.933 73.9827 105.72 74.188 105.544 74.3787C105.361 74.584 105.244 74.7527 105.192 74.8847C105.148 75.0167 105.126 75.0827 105.126 75.0827C105.06 75.156 104.998 75.1927 104.939 75.1927C104.8 75.1927 104.73 75.068 104.73 74.8187C104.73 74.5987 104.771 74.3493 104.851 74.0707C104.932 73.792 105.031 73.517 105.148 73.2457C105.273 72.967 105.387 72.725 105.489 72.5197C105.555 72.4023 105.647 72.3437 105.764 72.3437C105.845 72.3437 105.911 72.373 105.962 72.4317C106.021 72.4903 106.043 72.571 106.028 72.6737C106.028 72.7177 105.984 72.8057 105.896 72.9377C105.808 73.0623 105.717 73.2163 105.621 73.3997C105.533 73.5757 105.478 73.7663 105.456 73.9717C105.537 73.847 105.607 73.759 105.665 73.7077C105.731 73.649 105.812 73.572 105.907 73.4767C106.113 73.2713 106.289 73.11 106.435 72.9927C106.589 72.8753 106.751 72.7727 106.919 72.6847C107.088 72.5967 107.297 72.4977 107.546 72.3877C107.612 72.351 107.682 72.3217 107.755 72.2997C107.829 72.2777 107.902 72.2667 107.975 72.2667C108.093 72.2667 108.199 72.3107 108.294 72.3987C108.39 72.4793 108.467 72.626 108.525 72.8387C108.591 73.0513 108.621 73.3593 108.613 73.7627C108.716 73.682 108.804 73.6013 108.877 73.5207C108.958 73.4327 109.046 73.341 109.141 73.2457C109.354 73.033 109.541 72.8607 109.702 72.7287C109.871 72.5893 110.047 72.4683 110.23 72.3657C110.421 72.2557 110.648 72.142 110.912 72.0247C110.993 71.988 111.088 71.955 111.198 71.9257C111.308 71.889 111.415 71.8707 111.517 71.8707C111.642 71.8707 111.752 71.9073 111.847 71.9807C111.943 72.054 111.99 72.1897 111.99 72.3877C111.99 72.5197 111.965 72.6847 111.913 72.8827C111.869 73.0733 111.785 73.308 111.66 73.5867C111.55 73.8433 111.455 74.1183 111.374 74.4117C111.301 74.705 111.25 74.947 111.22 75.1377C111.301 75.255 111.341 75.3833 111.341 75.5227C111.341 75.574 111.33 75.618 111.308 75.6547C111.286 75.6913 111.25 75.7097 111.198 75.7097ZM112.257 78.3827C112.139 78.3827 112.026 78.335 111.916 78.2397C111.798 78.1443 111.751 77.994 111.773 77.7887C111.787 77.598 111.839 77.3413 111.927 77.0187C112.015 76.7033 112.125 76.3513 112.257 75.9627C112.389 75.574 112.535 75.1743 112.697 74.7637C112.858 74.3457 113.019 73.9423 113.181 73.5537C113.342 73.1577 113.496 72.802 113.643 72.4867C113.789 72.164 113.914 71.9037 114.017 71.7057C114.083 71.5883 114.174 71.5297 114.292 71.5297C114.365 71.5297 114.427 71.5553 114.479 71.6067C114.53 71.6507 114.556 71.7203 114.556 71.8157C114.556 71.8743 114.534 71.9697 114.49 72.1017C114.446 72.2263 114.391 72.3327 114.325 72.4207C114.222 72.5527 114.112 72.7177 113.995 72.9157C113.877 73.1063 113.767 73.308 113.665 73.5207C114.046 72.9853 114.446 72.5673 114.864 72.2667C115.282 71.966 115.736 71.746 116.228 71.6067C116.301 71.5847 116.371 71.57 116.437 71.5627C116.503 71.5553 116.565 71.5517 116.624 71.5517C116.924 71.5517 117.137 71.6543 117.262 71.8597C117.394 72.065 117.46 72.285 117.46 72.5197C117.46 72.7763 117.405 72.989 117.295 73.1577C117.097 73.561 116.866 73.8947 116.602 74.1587C116.338 74.4153 116.052 74.628 115.744 74.7967C115.443 74.958 115.128 75.1083 114.798 75.2477C114.636 75.321 114.493 75.3723 114.369 75.4017C114.251 75.4237 114.149 75.4347 114.061 75.4347C113.929 75.4347 113.837 75.4053 113.786 75.3467C113.734 75.288 113.709 75.222 113.709 75.1487C113.709 75.046 113.738 74.9507 113.797 74.8627C113.855 74.7747 113.91 74.738 113.962 74.7527C114.013 74.76 114.075 74.771 114.149 74.7857C114.222 74.8003 114.299 74.8077 114.38 74.8077C114.57 74.8077 114.732 74.7747 114.864 74.7087C115.076 74.5987 115.296 74.474 115.524 74.3347C115.758 74.1953 115.986 74.0157 116.206 73.7957C116.433 73.5683 116.631 73.2787 116.8 72.9267C116.844 72.802 116.866 72.681 116.866 72.5637C116.866 72.439 116.833 72.3327 116.767 72.2447C116.708 72.1567 116.605 72.1127 116.459 72.1127C116.217 72.1127 115.909 72.2227 115.535 72.4427C115.161 72.6553 114.768 72.956 114.358 73.3447C113.947 73.7333 113.558 74.1843 113.192 74.6977C113.03 75.1083 112.88 75.5117 112.741 75.9077C112.609 76.3037 112.502 76.6557 112.422 76.9637C112.341 77.279 112.293 77.51 112.279 77.6567C112.271 77.7373 112.315 77.8217 112.411 77.9097C112.506 77.9977 112.554 78.0857 112.554 78.1737C112.554 78.2323 112.517 78.2873 112.444 78.3387C112.407 78.368 112.345 78.3827 112.257 78.3827ZM118.344 75.3797C118.278 75.3797 118.215 75.354 118.157 75.3027C118.105 75.244 118.08 75.1487 118.08 75.0167C118.08 74.9873 118.08 74.958 118.08 74.9287C118.087 74.892 118.094 74.8553 118.102 74.8187C118.168 74.496 118.252 74.155 118.355 73.7957C118.465 73.4363 118.575 73.099 118.685 72.7837C118.795 72.461 118.875 72.208 118.927 72.0247C118.963 71.9073 119.015 71.823 119.081 71.7717C119.154 71.7203 119.227 71.6947 119.301 71.6947C119.381 71.6947 119.447 71.7203 119.499 71.7717C119.557 71.8157 119.587 71.878 119.587 71.9587C119.587 72.0247 119.565 72.098 119.521 72.1787C119.477 72.2593 119.422 72.3877 119.356 72.5637C119.297 72.7397 119.238 72.9157 119.18 73.0917C119.121 73.2677 119.07 73.3997 119.026 73.4877C119.282 73.2383 119.513 73.033 119.719 72.8717C119.924 72.7103 120.195 72.5527 120.533 72.3987C120.679 72.3253 120.87 72.2887 121.105 72.2887C121.273 72.2887 121.442 72.3217 121.611 72.3877C121.779 72.4537 121.919 72.571 122.029 72.7397C122.139 72.9083 122.194 73.1467 122.194 73.4547C122.194 73.572 122.128 73.6307 121.996 73.6307C121.944 73.6307 121.889 73.6087 121.831 73.5647C121.779 73.5207 121.735 73.4473 121.699 73.3447C121.647 73.176 121.567 73.044 121.457 72.9487C121.354 72.846 121.218 72.7947 121.05 72.7947C120.947 72.7947 120.83 72.8167 120.698 72.8607C120.536 72.912 120.335 73.011 120.093 73.1577C119.851 73.297 119.601 73.473 119.345 73.6857C119.095 73.8983 118.864 74.1403 118.652 74.4117C118.652 74.463 118.641 74.5217 118.619 74.5877C118.604 74.6537 118.597 74.727 118.597 74.8077C118.597 74.8223 118.604 74.859 118.619 74.9177C118.633 74.9763 118.641 75.035 118.641 75.0937C118.641 75.1743 118.608 75.244 118.542 75.3027C118.483 75.354 118.417 75.3797 118.344 75.3797ZM124.244 76.1827C124.186 76.1827 124.116 76.1717 124.035 76.1497C123.588 76.003 123.262 75.761 123.056 75.4237C122.851 75.079 122.748 74.716 122.748 74.3347C122.748 74.276 122.748 74.221 122.748 74.1697C122.756 74.111 122.763 74.056 122.77 74.0047C122.836 73.5867 122.976 73.2163 123.188 72.8937C123.408 72.571 123.654 72.307 123.925 72.1017C124.204 71.889 124.457 71.7533 124.684 71.6947C124.831 71.658 124.978 71.6287 125.124 71.6067C125.271 71.5773 125.414 71.5627 125.553 71.5627C125.905 71.5627 126.206 71.6397 126.455 71.7937C126.705 71.9477 126.829 72.2007 126.829 72.5527C126.829 72.7507 126.767 72.9303 126.642 73.0917C126.525 73.253 126.375 73.3923 126.191 73.5097C126.015 73.6197 125.843 73.7077 125.674 73.7737C125.418 73.8763 125.124 73.9533 124.794 74.0047C124.472 74.056 124.167 74.0817 123.881 74.0817C123.698 74.0817 123.529 74.0707 123.375 74.0487V74.0597C123.375 74.089 123.372 74.1183 123.364 74.1477C123.357 74.1697 123.353 74.1953 123.353 74.2247C123.346 74.254 123.342 74.2833 123.342 74.3127C123.342 74.3347 123.342 74.3567 123.342 74.3787C123.342 74.606 123.386 74.8077 123.474 74.9837C123.57 75.1523 123.68 75.299 123.804 75.4237C123.929 75.541 124.032 75.6363 124.112 75.7097C124.244 75.7757 124.336 75.838 124.387 75.8967C124.446 75.9627 124.475 76.014 124.475 76.0507C124.475 76.1387 124.398 76.1827 124.244 76.1827ZM124.178 73.5867C124.398 73.5867 124.629 73.572 124.871 73.5427C125.113 73.506 125.337 73.44 125.542 73.3447C125.704 73.264 125.854 73.1577 125.993 73.0257C126.133 72.8863 126.202 72.7213 126.202 72.5307C126.202 72.384 126.144 72.274 126.026 72.2007C125.909 72.1273 125.744 72.0907 125.531 72.0907C125.289 72.0907 125.025 72.1347 124.739 72.2227C124.637 72.252 124.508 72.3217 124.354 72.4317C124.208 72.5417 124.057 72.692 123.903 72.8827C123.749 73.066 123.621 73.286 123.518 73.5427C123.606 73.55 123.705 73.561 123.815 73.5757C123.933 73.583 124.054 73.5867 124.178 73.5867ZM127.39 75.9847C127.339 75.9847 127.28 75.981 127.214 75.9737C127.155 75.9663 127.093 75.9553 127.027 75.9407C126.932 75.9187 126.884 75.849 126.884 75.7317C126.884 75.6657 126.91 75.607 126.961 75.5557C127.012 75.497 127.086 75.475 127.181 75.4897C127.262 75.497 127.39 75.4787 127.566 75.4347C127.749 75.3907 127.951 75.332 128.171 75.2587C128.494 75.1413 128.758 75.0167 128.963 74.8847C129.168 74.7527 129.337 74.5987 129.469 74.4227C129.608 74.2467 129.678 74.078 129.678 73.9167C129.678 73.8433 129.663 73.7737 129.634 73.7077C129.605 73.6343 129.55 73.5647 129.469 73.4987C129.344 73.3887 129.194 73.286 129.018 73.1907C128.842 73.0953 128.67 72.9963 128.501 72.8937C128.332 72.7837 128.189 72.6627 128.072 72.5307C127.962 72.3913 127.907 72.2227 127.907 72.0247C127.907 71.8487 127.969 71.6983 128.094 71.5737C128.219 71.4417 128.362 71.3353 128.523 71.2547C128.692 71.1667 128.835 71.1043 128.952 71.0677C129.069 71.031 129.187 71.0053 129.304 70.9907C129.421 70.9687 129.539 70.9577 129.656 70.9577C129.795 70.9577 129.927 70.976 130.052 71.0127C130.184 71.042 130.309 71.097 130.426 71.1777C130.492 71.2217 130.54 71.273 130.569 71.3317C130.598 71.3903 130.613 71.449 130.613 71.5077C130.613 71.5883 130.587 71.6617 130.536 71.7277C130.492 71.7863 130.43 71.8157 130.349 71.8157C130.29 71.8157 130.213 71.7863 130.118 71.7277H130.129C129.968 71.6103 129.781 71.5517 129.568 71.5517C129.451 71.5517 129.344 71.5663 129.249 71.5957C129.095 71.6323 128.945 71.68 128.798 71.7387C128.651 71.7973 128.56 71.889 128.523 72.0137C128.501 72.109 128.556 72.2153 128.688 72.3327C128.827 72.4427 129 72.5563 129.205 72.6737C129.41 72.7837 129.601 72.8937 129.777 73.0037C129.946 73.099 130.081 73.2273 130.184 73.3887C130.287 73.55 130.338 73.7223 130.338 73.9057C130.338 74.133 130.254 74.353 130.085 74.5657C129.814 74.8957 129.531 75.1523 129.238 75.3357C128.952 75.519 128.629 75.6693 128.27 75.7867C128.072 75.8527 127.907 75.9003 127.775 75.9297C127.643 75.9663 127.515 75.9847 127.39 75.9847ZM131.322 75.9847C131.27 75.9847 131.212 75.981 131.146 75.9737C131.087 75.9663 131.025 75.9553 130.959 75.9407C130.863 75.9187 130.816 75.849 130.816 75.7317C130.816 75.6657 130.841 75.607 130.893 75.5557C130.944 75.497 131.017 75.475 131.113 75.4897C131.193 75.497 131.322 75.4787 131.498 75.4347C131.681 75.3907 131.883 75.332 132.103 75.2587C132.425 75.1413 132.689 75.0167 132.895 74.8847C133.1 74.7527 133.269 74.5987 133.401 74.4227C133.54 74.2467 133.61 74.078 133.61 73.9167C133.61 73.8433 133.595 73.7737 133.566 73.7077C133.536 73.6343 133.481 73.5647 133.401 73.4987C133.276 73.3887 133.126 73.286 132.95 73.1907C132.774 73.0953 132.601 72.9963 132.433 72.8937C132.264 72.7837 132.121 72.6627 132.004 72.5307C131.894 72.3913 131.839 72.2227 131.839 72.0247C131.839 71.8487 131.901 71.6983 132.026 71.5737C132.15 71.4417 132.293 71.3353 132.455 71.2547C132.623 71.1667 132.766 71.1043 132.884 71.0677C133.001 71.031 133.118 71.0053 133.236 70.9907C133.353 70.9687 133.47 70.9577 133.588 70.9577C133.727 70.9577 133.859 70.976 133.984 71.0127C134.116 71.042 134.24 71.097 134.358 71.1777C134.424 71.2217 134.471 71.273 134.501 71.3317C134.53 71.3903 134.545 71.449 134.545 71.5077C134.545 71.5883 134.519 71.6617 134.468 71.7277C134.424 71.7863 134.361 71.8157 134.281 71.8157C134.222 71.8157 134.145 71.7863 134.05 71.7277H134.061C133.899 71.6103 133.712 71.5517 133.5 71.5517C133.382 71.5517 133.276 71.5663 133.181 71.5957C133.027 71.6323 132.876 71.68 132.73 71.7387C132.583 71.7973 132.491 71.889 132.455 72.0137C132.433 72.109 132.488 72.2153 132.62 72.3327C132.759 72.4427 132.931 72.5563 133.137 72.6737C133.342 72.7837 133.533 72.8937 133.709 73.0037C133.877 73.099 134.013 73.2273 134.116 73.3887C134.218 73.55 134.27 73.7223 134.27 73.9057C134.27 74.133 134.185 74.353 134.017 74.5657C133.745 74.8957 133.463 75.1523 133.17 75.3357C132.884 75.519 132.561 75.6693 132.202 75.7867C132.004 75.8527 131.839 75.9003 131.707 75.9297C131.575 75.9663 131.446 75.9847 131.322 75.9847ZM139.278 78.2617C139.154 78.2617 139.036 78.247 138.926 78.2177C138.78 78.1737 138.662 78.0967 138.574 77.9867C138.486 77.8767 138.442 77.763 138.442 77.6457C138.442 77.521 138.45 77.4367 138.464 77.3927C138.479 77.3487 138.512 77.3267 138.563 77.3267C138.607 77.3267 138.684 77.3377 138.794 77.3597C138.853 77.3597 138.912 77.4073 138.97 77.5027C139.029 77.6053 139.095 77.675 139.168 77.7117C139.264 77.7483 139.344 77.7667 139.41 77.7667C139.542 77.7667 139.663 77.7337 139.773 77.6677C139.891 77.6017 139.99 77.532 140.07 77.4587C140.334 77.2313 140.562 76.9967 140.752 76.7547C140.943 76.5127 141.119 76.2377 141.28 75.9297C141.449 75.629 141.614 75.277 141.775 74.8737C141.827 74.7563 141.874 74.6207 141.918 74.4667C141.97 74.3053 142.01 74.155 142.039 74.0157C142.076 73.869 142.091 73.7627 142.083 73.6967C142.047 73.726 142.006 73.759 141.962 73.7957C141.926 73.8323 141.885 73.869 141.841 73.9057C141.673 74.0597 141.471 74.2137 141.236 74.3677C141.009 74.5217 140.767 74.65 140.51 74.7527C140.254 74.8553 139.99 74.9067 139.718 74.9067C139.476 74.9067 139.249 74.859 139.036 74.7637C138.787 74.6463 138.611 74.4923 138.508 74.3017C138.406 74.111 138.354 73.9093 138.354 73.6967C138.354 73.594 138.362 73.495 138.376 73.3997C138.398 73.3043 138.424 73.209 138.453 73.1137C138.512 72.9083 138.618 72.7213 138.772 72.5527C138.926 72.3767 139.099 72.23 139.289 72.1127C139.48 71.9953 139.663 71.9183 139.839 71.8817C139.854 71.8743 139.872 71.8707 139.894 71.8707C139.916 71.8707 139.935 71.8707 139.949 71.8707C140.052 71.8707 140.136 71.9 140.202 71.9587C140.268 72.01 140.301 72.065 140.301 72.1237C140.301 72.197 140.25 72.2557 140.147 72.2997C139.971 72.3657 139.814 72.4317 139.674 72.4977C139.542 72.5637 139.425 72.6517 139.322 72.7617C139.227 72.8717 139.139 73.033 139.058 73.2457C139.036 73.3043 139.018 73.374 139.003 73.4547C138.989 73.5353 138.981 73.6197 138.981 73.7077C138.981 73.847 139.003 73.9827 139.047 74.1147C139.099 74.2467 139.183 74.331 139.3 74.3677C139.447 74.4117 139.59 74.4337 139.729 74.4337C140.052 74.4337 140.367 74.3493 140.675 74.1807C140.991 74.0047 141.266 73.8177 141.5 73.6197C141.823 73.363 142.028 73.1503 142.116 72.9817C142.212 72.8057 142.278 72.6553 142.314 72.5307C142.336 72.45 142.377 72.395 142.435 72.3657C142.494 72.329 142.556 72.3107 142.622 72.3107C142.703 72.3107 142.776 72.34 142.842 72.3987C142.916 72.45 142.938 72.5197 142.908 72.6077C142.798 73.011 142.681 73.4547 142.556 73.9387C142.439 74.4227 142.285 74.9103 142.094 75.4017C141.911 75.893 141.669 76.3587 141.368 76.7987C141.068 77.246 140.683 77.6347 140.213 77.9647C140.096 78.0453 139.957 78.115 139.795 78.1737C139.634 78.2323 139.462 78.2617 139.278 78.2617ZM144.292 75.3467C144.248 75.3467 144.204 75.3467 144.16 75.3467C144.116 75.3393 144.072 75.332 144.028 75.3247C143.727 75.288 143.492 75.145 143.324 74.8957C143.162 74.639 143.082 74.353 143.082 74.0377C143.082 73.8323 143.122 73.616 143.203 73.3887C143.291 73.154 143.426 72.9413 143.61 72.7507C143.793 72.5527 144.006 72.395 144.248 72.2777C144.49 72.1603 144.735 72.1017 144.985 72.1017C145.109 72.1017 145.227 72.1163 145.337 72.1457C145.454 72.175 145.513 72.2337 145.513 72.3217C145.513 72.3803 145.48 72.439 145.414 72.4977C145.355 72.549 145.274 72.5637 145.172 72.5417C145.142 72.5343 145.095 72.5307 145.029 72.5307C144.853 72.5307 144.673 72.5783 144.49 72.6737C144.306 72.769 144.141 72.8973 143.995 73.0587C143.848 73.2127 143.742 73.385 143.676 73.5757C143.624 73.7223 143.599 73.869 143.599 74.0157C143.599 74.243 143.65 74.4373 143.753 74.5987C143.863 74.76 143.987 74.8407 144.127 74.8407C144.163 74.848 144.196 74.8517 144.226 74.8517C144.262 74.8517 144.295 74.8517 144.325 74.8517C144.647 74.8517 144.955 74.7637 145.249 74.5877C145.549 74.4043 145.78 74.2063 145.942 73.9937C146.022 73.869 146.077 73.759 146.107 73.6637C146.136 73.561 146.151 73.4767 146.151 73.4107C146.151 73.264 146.107 73.165 146.019 73.1137C145.931 73.0623 145.85 73.0403 145.777 73.0477C145.659 73.0623 145.546 73.0807 145.436 73.1027C145.326 73.1173 145.23 73.143 145.15 73.1797C145.106 73.1943 145.073 73.2017 145.051 73.2017C144.977 73.2017 144.915 73.1723 144.864 73.1137C144.82 73.055 144.798 72.9927 144.798 72.9267C144.798 72.8093 144.853 72.7323 144.963 72.6957C145.065 72.659 145.186 72.626 145.326 72.5967C145.465 72.5673 145.608 72.5453 145.755 72.5307C145.784 72.5233 145.81 72.5197 145.832 72.5197C145.854 72.5197 145.879 72.5197 145.909 72.5197C146.173 72.5197 146.378 72.6003 146.525 72.7617C146.671 72.9157 146.745 73.1063 146.745 73.3337C146.745 73.473 146.712 73.6233 146.646 73.7847C146.58 73.946 146.473 74.1 146.327 74.2467C146.195 74.4153 146.026 74.584 145.821 74.7527C145.615 74.9213 145.384 75.0643 145.128 75.1817C144.871 75.2917 144.592 75.3467 144.292 75.3467ZM148.745 75.2587C148.621 75.2587 148.492 75.2403 148.36 75.2037C148.228 75.167 148.096 75.112 147.964 75.0387C147.722 74.8993 147.554 74.7197 147.458 74.4997C147.363 74.2797 147.315 74.045 147.315 73.7957C147.315 73.6783 147.323 73.5647 147.337 73.4547C147.352 73.3373 147.374 73.22 147.403 73.1027C147.462 72.8607 147.565 72.6407 147.711 72.4427C147.858 72.2373 148.023 72.065 148.206 71.9257C148.39 71.7863 148.566 71.6983 148.734 71.6617C148.756 71.6543 148.786 71.6507 148.822 71.6507C148.925 71.6507 149.009 71.68 149.075 71.7387C149.141 71.7973 149.174 71.8633 149.174 71.9367C149.174 72.0247 149.123 72.0943 149.02 72.1457V72.1567C148.852 72.23 148.701 72.307 148.569 72.3877C148.445 72.461 148.335 72.5637 148.239 72.6957C148.144 72.8277 148.056 73.0183 147.975 73.2677C147.931 73.3997 147.909 73.5757 147.909 73.7957C147.909 73.9643 147.931 74.1257 147.975 74.2797C148.027 74.4263 148.111 74.5253 148.228 74.5767C148.353 74.628 148.485 74.6537 148.624 74.6537C148.925 74.6537 149.222 74.551 149.515 74.3457C149.809 74.133 150.069 73.913 150.296 73.6857C150.502 73.4803 150.692 73.2493 150.868 72.9927C151.052 72.7287 151.206 72.4867 151.33 72.2667C151.455 72.0393 151.528 71.8743 151.55 71.7717C151.58 71.647 151.66 71.5847 151.792 71.5847C151.873 71.5847 151.946 71.6177 152.012 71.6837C152.078 71.7423 152.097 71.823 152.067 71.9257C152.023 72.0797 151.935 72.2813 151.803 72.5307C151.679 72.78 151.525 73.0403 151.341 73.3117C151.165 73.5757 150.978 73.8177 150.78 74.0377C150.619 74.221 150.432 74.408 150.219 74.5987C150.007 74.782 149.776 74.9397 149.526 75.0717C149.277 75.1963 149.017 75.2587 148.745 75.2587ZM152.418 75.3797C152.352 75.3797 152.29 75.354 152.231 75.3027C152.18 75.244 152.154 75.1487 152.154 75.0167C152.154 74.9873 152.154 74.958 152.154 74.9287C152.161 74.892 152.169 74.8553 152.176 74.8187C152.242 74.496 152.326 74.155 152.429 73.7957C152.539 73.4363 152.649 73.099 152.759 72.7837C152.869 72.461 152.95 72.208 153.001 72.0247C153.038 71.9073 153.089 71.823 153.155 71.7717C153.228 71.7203 153.302 71.6947 153.375 71.6947C153.456 71.6947 153.522 71.7203 153.573 71.7717C153.632 71.8157 153.661 71.878 153.661 71.9587C153.661 72.0247 153.639 72.098 153.595 72.1787C153.551 72.2593 153.496 72.3877 153.43 72.5637C153.371 72.7397 153.313 72.9157 153.254 73.0917C153.195 73.2677 153.144 73.3997 153.1 73.4877C153.357 73.2383 153.588 73.033 153.793 72.8717C153.998 72.7103 154.27 72.5527 154.607 72.3987C154.754 72.3253 154.944 72.2887 155.179 72.2887C155.348 72.2887 155.516 72.3217 155.685 72.3877C155.854 72.4537 155.993 72.571 156.103 72.7397C156.213 72.9083 156.268 73.1467 156.268 73.4547C156.268 73.572 156.202 73.6307 156.07 73.6307C156.019 73.6307 155.964 73.6087 155.905 73.5647C155.854 73.5207 155.81 73.4473 155.773 73.3447C155.722 73.176 155.641 73.044 155.531 72.9487C155.428 72.846 155.293 72.7947 155.124 72.7947C155.021 72.7947 154.904 72.8167 154.772 72.8607C154.611 72.912 154.409 73.011 154.167 73.1577C153.925 73.297 153.676 73.473 153.419 73.6857C153.17 73.8983 152.939 74.1403 152.726 74.4117C152.726 74.463 152.715 74.5217 152.693 74.5877C152.678 74.6537 152.671 74.727 152.671 74.8077C152.671 74.8223 152.678 74.859 152.693 74.9177C152.708 74.9763 152.715 75.035 152.715 75.0937C152.715 75.1743 152.682 75.244 152.616 75.3027C152.557 75.354 152.491 75.3797 152.418 75.3797ZM160.65 75.8747C160.532 75.8747 160.415 75.827 160.298 75.7317C160.188 75.6437 160.14 75.497 160.155 75.2917C160.177 75.101 160.228 74.848 160.309 74.5327C160.397 74.21 160.507 73.8543 160.639 73.4657C160.778 73.077 160.925 72.6773 161.079 72.2667C161.24 71.8487 161.401 71.4453 161.563 71.0567C161.724 70.6607 161.878 70.305 162.025 69.9897C162.171 69.667 162.296 69.4067 162.399 69.2087C162.465 69.0913 162.556 69.0327 162.674 69.0327C162.74 69.0327 162.798 69.0583 162.85 69.1097C162.901 69.1537 162.927 69.2197 162.927 69.3077C162.927 69.337 162.916 69.3993 162.894 69.4947C162.879 69.59 162.853 69.689 162.817 69.7917C162.787 69.8943 162.754 69.9787 162.718 70.0447C162.644 70.162 162.556 70.283 162.454 70.4077C162.351 70.5323 162.259 70.679 162.179 70.8477C162.003 71.229 161.827 71.6323 161.651 72.0577C161.475 72.4757 161.313 72.8863 161.167 73.2897C161.02 73.693 160.899 74.056 160.804 74.3787C160.716 74.7013 160.664 74.958 160.65 75.1487C160.65 75.2 160.672 75.255 160.716 75.3137C160.767 75.3723 160.815 75.431 160.859 75.4897C160.91 75.5483 160.936 75.607 160.936 75.6657C160.936 75.7243 160.899 75.7793 160.826 75.8307C160.789 75.86 160.73 75.8747 160.65 75.8747ZM163.531 75.3467C163.487 75.3467 163.443 75.3467 163.399 75.3467C163.355 75.3393 163.311 75.332 163.267 75.3247C162.966 75.288 162.731 75.145 162.563 74.8957C162.401 74.639 162.321 74.353 162.321 74.0377C162.321 73.8323 162.361 73.616 162.442 73.3887C162.53 73.154 162.665 72.9413 162.849 72.7507C163.032 72.5527 163.245 72.395 163.487 72.2777C163.729 72.1603 163.974 72.1017 164.224 72.1017C164.348 72.1017 164.466 72.1163 164.576 72.1457C164.693 72.175 164.752 72.2337 164.752 72.3217C164.752 72.3803 164.719 72.439 164.653 72.4977C164.594 72.549 164.513 72.5637 164.411 72.5417C164.381 72.5343 164.334 72.5307 164.268 72.5307C164.092 72.5307 163.912 72.5783 163.729 72.6737C163.545 72.769 163.38 72.8973 163.234 73.0587C163.087 73.2127 162.981 73.385 162.915 73.5757C162.863 73.7223 162.838 73.869 162.838 74.0157C162.838 74.243 162.889 74.4373 162.992 74.5987C163.102 74.76 163.226 74.8407 163.366 74.8407C163.402 74.848 163.435 74.8517 163.465 74.8517C163.501 74.8517 163.534 74.8517 163.564 74.8517C163.886 74.8517 164.194 74.7637 164.488 74.5877C164.788 74.4043 165.019 74.2063 165.181 73.9937C165.261 73.869 165.316 73.759 165.346 73.6637C165.375 73.561 165.39 73.4767 165.39 73.4107C165.39 73.264 165.346 73.165 165.258 73.1137C165.17 73.0623 165.089 73.0403 165.016 73.0477C164.898 73.0623 164.785 73.0807 164.675 73.1027C164.565 73.1173 164.469 73.143 164.389 73.1797C164.345 73.1943 164.312 73.2017 164.29 73.2017C164.216 73.2017 164.154 73.1723 164.103 73.1137C164.059 73.055 164.037 72.9927 164.037 72.9267C164.037 72.8093 164.092 72.7323 164.202 72.6957C164.304 72.659 164.425 72.626 164.565 72.5967C164.704 72.5673 164.847 72.5453 164.994 72.5307C165.023 72.5233 165.049 72.5197 165.071 72.5197C165.093 72.5197 165.118 72.5197 165.148 72.5197C165.412 72.5197 165.617 72.6003 165.764 72.7617C165.91 72.9157 165.984 73.1063 165.984 73.3337C165.984 73.473 165.951 73.6233 165.885 73.7847C165.819 73.946 165.712 74.1 165.566 74.2467C165.434 74.4153 165.265 74.584 165.06 74.7527C164.854 74.9213 164.623 75.0643 164.367 75.1817C164.11 75.2917 163.831 75.3467 163.531 75.3467ZM167.83 75.3577C167.779 75.3577 167.724 75.343 167.665 75.3137C167.614 75.2843 167.574 75.2403 167.544 75.1817C167.427 74.8957 167.332 74.639 167.258 74.4117C167.192 74.1843 167.13 73.9203 167.071 73.6197C167.013 73.3337 166.961 73.0513 166.917 72.7727C166.881 72.494 166.862 72.241 166.862 72.0137C166.862 71.8597 166.873 71.7167 166.895 71.5847C166.91 71.4967 166.95 71.4307 167.016 71.3867C167.09 71.3353 167.163 71.3097 167.236 71.3097C167.31 71.3097 167.372 71.3317 167.423 71.3757C167.475 71.4197 167.493 71.4857 167.478 71.5737C167.471 71.6103 167.456 71.691 167.434 71.8157C167.42 71.933 167.416 72.0173 167.423 72.0687C167.416 72.1127 167.412 72.1603 167.412 72.2117C167.412 72.2557 167.412 72.2997 167.412 72.3437C167.412 72.5197 167.423 72.7067 167.445 72.9047C167.475 73.1027 167.511 73.3153 167.555 73.5427C167.599 73.748 167.654 73.9313 167.72 74.0927C167.786 74.254 167.852 74.419 167.918 74.5877C168.05 74.3897 168.208 74.1587 168.391 73.8947C168.582 73.6233 168.784 73.3557 168.996 73.0917C169.209 72.8203 169.414 72.582 169.612 72.3767C169.818 72.164 170.001 72.021 170.162 71.9477C170.265 71.889 170.371 71.8597 170.481 71.8597C170.569 71.8597 170.628 71.8853 170.657 71.9367C170.687 71.988 170.672 72.054 170.613 72.1347C170.555 72.208 170.496 72.2667 170.437 72.3107C169.975 72.6627 169.546 73.1027 169.15 73.6307C168.762 74.1587 168.399 74.6977 168.061 75.2477C168.017 75.321 167.94 75.3577 167.83 75.3577ZM171.736 76.1827C171.677 76.1827 171.607 76.1717 171.527 76.1497C171.079 76.003 170.753 75.761 170.548 75.4237C170.342 75.079 170.24 74.716 170.24 74.3347C170.24 74.276 170.24 74.221 170.24 74.1697C170.247 74.111 170.254 74.056 170.262 74.0047C170.328 73.5867 170.467 73.2163 170.68 72.8937C170.9 72.571 171.145 72.307 171.417 72.1017C171.695 71.889 171.948 71.7533 172.176 71.6947C172.322 71.658 172.469 71.6287 172.616 71.6067C172.762 71.5773 172.905 71.5627 173.045 71.5627C173.397 71.5627 173.697 71.6397 173.947 71.7937C174.196 71.9477 174.321 72.2007 174.321 72.5527C174.321 72.7507 174.258 72.9303 174.134 73.0917C174.016 73.253 173.866 73.3923 173.683 73.5097C173.507 73.6197 173.334 73.7077 173.166 73.7737C172.909 73.8763 172.616 73.9533 172.286 74.0047C171.963 74.056 171.659 74.0817 171.373 74.0817C171.189 74.0817 171.021 74.0707 170.867 74.0487V74.0597C170.867 74.089 170.863 74.1183 170.856 74.1477C170.848 74.1697 170.845 74.1953 170.845 74.2247C170.837 74.254 170.834 74.2833 170.834 74.3127C170.834 74.3347 170.834 74.3567 170.834 74.3787C170.834 74.606 170.878 74.8077 170.966 74.9837C171.061 75.1523 171.171 75.299 171.296 75.4237C171.42 75.541 171.523 75.6363 171.604 75.7097C171.736 75.7757 171.827 75.838 171.879 75.8967C171.937 75.9627 171.967 76.014 171.967 76.0507C171.967 76.1387 171.89 76.1827 171.736 76.1827ZM171.67 73.5867C171.89 73.5867 172.121 73.572 172.363 73.5427C172.605 73.506 172.828 73.44 173.034 73.3447C173.195 73.264 173.345 73.1577 173.485 73.0257C173.624 72.8863 173.694 72.7213 173.694 72.5307C173.694 72.384 173.635 72.274 173.518 72.2007C173.4 72.1273 173.235 72.0907 173.023 72.0907C172.781 72.0907 172.517 72.1347 172.231 72.2227C172.128 72.252 172 72.3217 171.846 72.4317C171.699 72.5417 171.549 72.692 171.395 72.8827C171.241 73.066 171.112 73.286 171.01 73.5427C171.098 73.55 171.197 73.561 171.307 73.5757C171.424 73.583 171.545 73.5867 171.67 73.5867ZM176.729 75.4567C176.326 75.4567 175.974 75.387 175.673 75.2477C175.38 75.1083 175.149 74.9287 174.98 74.7087C174.819 74.4813 174.738 74.2393 174.738 73.9827C174.738 73.8507 174.76 73.715 174.804 73.5757C174.856 73.4363 174.933 73.3043 175.035 73.1797C175.167 73.011 175.332 72.8277 175.53 72.6297C175.736 72.4317 175.967 72.2447 176.223 72.0687C176.487 71.8927 176.777 71.7497 177.092 71.6397C177.408 71.5223 177.745 71.4637 178.104 71.4637C178.368 71.4637 178.548 71.4857 178.643 71.5297C178.746 71.5737 178.816 71.6323 178.852 71.7057C178.889 71.7717 178.933 71.8377 178.984 71.9037C179.072 71.625 179.175 71.3317 179.292 71.0237C179.41 70.7157 179.523 70.426 179.633 70.1547C179.743 69.8833 179.831 69.6633 179.897 69.4947C179.941 69.3993 179.993 69.2857 180.051 69.1537C180.117 69.0143 180.172 68.8933 180.216 68.7907C180.268 68.6807 180.293 68.6257 180.293 68.6257C180.345 68.501 180.44 68.4387 180.579 68.4387C180.682 68.4387 180.777 68.4753 180.865 68.5487C180.953 68.622 180.997 68.71 180.997 68.8127C180.997 68.886 180.968 68.963 180.909 69.0437H180.898C180.898 69.0437 180.865 69.0803 180.799 69.1537C180.733 69.2197 180.66 69.304 180.579 69.4067C180.506 69.5093 180.451 69.6047 180.414 69.6927C180.326 69.9127 180.216 70.173 180.084 70.4737C179.96 70.767 179.831 71.0897 179.699 71.4417C179.567 71.7937 179.45 72.153 179.347 72.5197C179.252 72.879 179.193 73.2347 179.171 73.5867C179.164 73.638 179.138 73.6783 179.094 73.7077C179.05 73.737 178.999 73.7517 178.94 73.7517C178.86 73.7517 178.786 73.7333 178.72 73.6967C178.654 73.6527 178.629 73.594 178.643 73.5207C178.68 73.418 178.702 73.3153 178.709 73.2127C178.724 73.1027 178.731 73 178.731 72.9047C178.731 72.6993 178.698 72.5233 178.632 72.3767C178.574 72.2227 178.478 72.1273 178.346 72.0907C178.288 72.0687 178.225 72.054 178.159 72.0467C178.093 72.0393 178.027 72.0357 177.961 72.0357C177.727 72.0357 177.488 72.0907 177.246 72.2007C177.004 72.3033 176.773 72.439 176.553 72.6077C176.341 72.769 176.146 72.9377 175.97 73.1137C175.794 73.2897 175.655 73.451 175.552 73.5977C175.45 73.737 175.398 73.8873 175.398 74.0487C175.398 74.2393 175.49 74.4227 175.673 74.5987C175.857 74.7673 176.172 74.87 176.619 74.9067C176.656 74.914 176.693 74.9177 176.729 74.9177C176.766 74.9177 176.806 74.9177 176.85 74.9177C177.151 74.9177 177.463 74.881 177.785 74.8077C178.115 74.727 178.405 74.6353 178.654 74.5327C178.852 74.452 179.028 74.3567 179.182 74.2467C179.336 74.1367 179.472 74.0303 179.589 73.9277C179.648 73.8763 179.71 73.8507 179.776 73.8507C179.842 73.8507 179.897 73.8763 179.941 73.9277C179.993 73.9717 180.018 74.023 180.018 74.0817C180.018 74.155 179.985 74.221 179.919 74.2797C179.802 74.3823 179.652 74.507 179.468 74.6537C179.292 74.793 179.08 74.914 178.83 75.0167C178.537 75.134 178.196 75.2367 177.807 75.3247C177.419 75.4127 177.059 75.4567 176.729 75.4567ZM184.972 75.3467C184.928 75.3467 184.884 75.3467 184.84 75.3467C184.796 75.3393 184.752 75.332 184.708 75.3247C184.408 75.288 184.173 75.145 184.004 74.8957C183.843 74.639 183.762 74.353 183.762 74.0377C183.762 73.8323 183.803 73.616 183.883 73.3887C183.971 73.154 184.107 72.9413 184.29 72.7507C184.474 72.5527 184.686 72.395 184.928 72.2777C185.17 72.1603 185.416 72.1017 185.665 72.1017C185.79 72.1017 185.907 72.1163 186.017 72.1457C186.135 72.175 186.193 72.2337 186.193 72.3217C186.193 72.3803 186.16 72.439 186.094 72.4977C186.036 72.549 185.955 72.5637 185.852 72.5417C185.823 72.5343 185.775 72.5307 185.709 72.5307C185.533 72.5307 185.354 72.5783 185.17 72.6737C184.987 72.769 184.822 72.8973 184.675 73.0587C184.529 73.2127 184.422 73.385 184.356 73.5757C184.305 73.7223 184.279 73.869 184.279 74.0157C184.279 74.243 184.331 74.4373 184.433 74.5987C184.543 74.76 184.668 74.8407 184.807 74.8407C184.844 74.848 184.877 74.8517 184.906 74.8517C184.943 74.8517 184.976 74.8517 185.005 74.8517C185.328 74.8517 185.636 74.7637 185.929 74.5877C186.23 74.4043 186.461 74.2063 186.622 73.9937C186.703 73.869 186.758 73.759 186.787 73.6637C186.817 73.561 186.831 73.4767 186.831 73.4107C186.831 73.264 186.787 73.165 186.699 73.1137C186.611 73.0623 186.531 73.0403 186.457 73.0477C186.34 73.0623 186.226 73.0807 186.116 73.1027C186.006 73.1173 185.911 73.143 185.83 73.1797C185.786 73.1943 185.753 73.2017 185.731 73.2017C185.658 73.2017 185.596 73.1723 185.544 73.1137C185.5 73.055 185.478 72.9927 185.478 72.9267C185.478 72.8093 185.533 72.7323 185.643 72.6957C185.746 72.659 185.867 72.626 186.006 72.5967C186.146 72.5673 186.289 72.5453 186.435 72.5307C186.465 72.5233 186.49 72.5197 186.512 72.5197C186.534 72.5197 186.56 72.5197 186.589 72.5197C186.853 72.5197 187.059 72.6003 187.205 72.7617C187.352 72.9157 187.425 73.1063 187.425 73.3337C187.425 73.473 187.392 73.6233 187.326 73.7847C187.26 73.946 187.154 74.1 187.007 74.2467C186.875 74.4153 186.707 74.584 186.501 74.7527C186.296 74.9213 186.065 75.0643 185.808 75.1817C185.552 75.2917 185.273 75.3467 184.972 75.3467ZM191.857 75.6437C191.747 75.6437 191.644 75.5813 191.549 75.4567C191.454 75.3247 191.406 75.1597 191.406 74.9617C191.406 74.837 191.417 74.6793 191.439 74.4887C191.461 74.298 191.494 74.1073 191.538 73.9167C191.582 73.7187 191.633 73.55 191.692 73.4107C191.809 73.1467 191.868 72.9377 191.868 72.7837C191.868 72.593 191.78 72.4977 191.604 72.4977C191.582 72.4977 191.556 72.4977 191.527 72.4977C191.498 72.4977 191.468 72.505 191.439 72.5197C191.292 72.5637 191.094 72.6627 190.845 72.8167C190.596 72.9633 190.332 73.1357 190.053 73.3337C189.782 73.5317 189.525 73.7297 189.283 73.9277C189.041 74.1257 188.854 74.298 188.722 74.4447C188.539 74.65 188.418 74.8077 188.359 74.9177C188.3 75.0277 188.271 75.0827 188.271 75.0827C188.212 75.1633 188.146 75.2037 188.073 75.2037C188.007 75.2037 187.952 75.1707 187.908 75.1047C187.864 75.0313 187.853 74.936 187.875 74.8187C187.978 74.2173 188.088 73.704 188.205 73.2787C188.33 72.8533 188.473 72.4867 188.634 72.1787C188.7 72.0613 188.792 72.0027 188.909 72.0027C188.975 72.0027 189.034 72.0283 189.085 72.0797C189.136 72.1237 189.162 72.1933 189.162 72.2887C189.162 72.34 189.14 72.439 189.096 72.5857C189.059 72.7323 189.012 72.8533 188.953 72.9487C188.88 73.066 188.817 73.2017 188.766 73.3557C188.722 73.5023 188.667 73.7077 188.601 73.9717C188.682 73.847 188.751 73.759 188.81 73.7077C188.869 73.649 188.946 73.572 189.041 73.4767C189.342 73.176 189.697 72.9047 190.108 72.6627C190.526 72.4133 190.926 72.2043 191.307 72.0357C191.388 71.999 191.49 71.9623 191.615 71.9257C191.74 71.889 191.864 71.8707 191.989 71.8707C192.136 71.8707 192.268 71.911 192.385 71.9917C192.502 72.0723 192.561 72.2263 192.561 72.4537C192.561 72.571 192.539 72.714 192.495 72.8827C192.458 73.0513 192.392 73.2493 192.297 73.4767C192.18 73.748 192.103 74.0303 192.066 74.3237C192.037 74.617 192.022 74.8663 192.022 75.0717C192.022 75.1303 192.022 75.189 192.022 75.2477C192.029 75.299 192.033 75.3467 192.033 75.3907C192.033 75.464 192.022 75.5227 192 75.5667C191.978 75.618 191.93 75.6437 191.857 75.6437ZM194.573 76.1827C194.515 76.1827 194.445 76.1717 194.364 76.1497C193.917 76.003 193.591 75.761 193.385 75.4237C193.18 75.079 193.077 74.716 193.077 74.3347C193.077 74.276 193.077 74.221 193.077 74.1697C193.085 74.111 193.092 74.056 193.099 74.0047C193.165 73.5867 193.305 73.2163 193.517 72.8937C193.737 72.571 193.983 72.307 194.254 72.1017C194.533 71.889 194.786 71.7533 195.013 71.6947C195.16 71.658 195.307 71.6287 195.453 71.6067C195.6 71.5773 195.743 71.5627 195.882 71.5627C196.234 71.5627 196.535 71.6397 196.784 71.7937C197.034 71.9477 197.158 72.2007 197.158 72.5527C197.158 72.7507 197.096 72.9303 196.971 73.0917C196.854 73.253 196.704 73.3923 196.52 73.5097C196.344 73.6197 196.172 73.7077 196.003 73.7737C195.747 73.8763 195.453 73.9533 195.123 74.0047C194.801 74.056 194.496 74.0817 194.21 74.0817C194.027 74.0817 193.858 74.0707 193.704 74.0487V74.0597C193.704 74.089 193.701 74.1183 193.693 74.1477C193.686 74.1697 193.682 74.1953 193.682 74.2247C193.675 74.254 193.671 74.2833 193.671 74.3127C193.671 74.3347 193.671 74.3567 193.671 74.3787C193.671 74.606 193.715 74.8077 193.803 74.9837C193.899 75.1523 194.009 75.299 194.133 75.4237C194.258 75.541 194.361 75.6363 194.441 75.7097C194.573 75.7757 194.665 75.838 194.716 75.8967C194.775 75.9627 194.804 76.014 194.804 76.0507C194.804 76.1387 194.727 76.1827 194.573 76.1827ZM194.507 73.5867C194.727 73.5867 194.958 73.572 195.2 73.5427C195.442 73.506 195.666 73.44 195.871 73.3447C196.033 73.264 196.183 73.1577 196.322 73.0257C196.462 72.8863 196.531 72.7213 196.531 72.5307C196.531 72.384 196.473 72.274 196.355 72.2007C196.238 72.1273 196.073 72.0907 195.86 72.0907C195.618 72.0907 195.354 72.1347 195.068 72.2227C194.966 72.252 194.837 72.3217 194.683 72.4317C194.537 72.5417 194.386 72.692 194.232 72.8827C194.078 73.066 193.95 73.286 193.847 73.5427C193.935 73.55 194.034 73.561 194.144 73.5757C194.262 73.583 194.383 73.5867 194.507 73.5867Z" fill="#FF007A"/>
<g id="BOX">
<line id="Line 1" x1="10" y1="11" x2="290" y2="11" stroke="#FF007A" stroke-width="2"/>
<path id="Line 3" d="M10 73.25H93.8579" stroke="#FF007A" stroke-width="2"/>
<line id="Line 5" x1="204.721" y1="73.2227" x2="288.579" y2="73.2227" stroke="#FF007A" stroke-width="2"/>
<line id="Line 2" x1="11" y1="12" x2="11" y2="74.2222" stroke="#FF007A" stroke-width="2"/>
<line id="Line 4" x1="289" y1="12" x2="289" y2="74.2222" stroke="#FF007A" stroke-width="2"/>
</g>
</g>
</g>
<defs>
<linearGradient id="paint0_linear_164_407" x1="149.716" y1="27.6962" x2="151.623" y2="58.3032" gradientUnits="userSpaceOnUse">
<stop stop-color="#FFA800"/>
<stop offset="0.52323" stop-color="#FFFB96"/>
<stop offset="1" stop-color="#FFA800"/>
</linearGradient>
</defs>
</svg>
